<svg width="31" height="30" viewBox="0 0 31 30" fill="none" xmlns="http://www.w3.org/2000/svg">
<path d="M21.75 2.5H9.25C5.79822 2.5 3 5.29822 3 8.75V21.25C3 24.7018 5.79822 27.5 9.25 27.5H21.75C25.2018 27.5 28 24.7018 28 21.25V8.75C28 5.29822 25.2018 2.5 21.75 2.5Z" stroke="black" stroke-width="2" stroke-linecap="round" stroke-linejoin="round"/>
<path d="M20.5 14.2124C20.6543 15.2527 20.4766 16.3152 19.9922 17.2487C19.5078 18.1822 18.7414 18.9392 17.802 19.412C16.8626 19.8848 15.7981 20.0494 14.7597 19.8823C13.7214 19.7152 12.7622 19.225 12.0185 18.4813C11.2749 17.7377 10.7847 16.7785 10.6176 15.7402C10.4505 14.7018 10.6151 13.6373 11.0879 12.6979C11.5607 11.7585 12.3177 10.9921 13.2512 10.5077C14.1847 10.0233 15.2472 9.84562 16.2875 9.99989C17.3487 10.1572 18.3311 10.6517 19.0896 11.4103C19.8482 12.1688 20.3426 13.1512 20.5 14.2124Z" stroke="black" stroke-width="2" stroke-linecap="round" stroke-linejoin="round"/>
<path d="M22.375 8.125H22.3875" stroke="black" stroke-width="2" stroke-linecap="round" stroke-linejoin="round"/>
</svg>
