<svg width="31" height="30" viewBox="0 0 31 30" fill="none" xmlns="http://www.w3.org/2000/svg">
<path d="M20.5 10C22.4891 10 24.3968 10.7902 25.8033 12.1967C27.2098 13.6032 28 15.5109 28 17.5V26.25H23V17.5C23 16.837 22.7366 16.2011 22.2678 15.7322C21.7989 15.2634 21.163 15 20.5 15C19.837 15 19.2011 15.2634 18.7322 15.7322C18.2634 16.2011 18 16.837 18 17.5V26.25H13V17.5C13 15.5109 13.7902 13.6032 15.1967 12.1967C16.6032 10.7902 18.5109 10 20.5 10V10Z" stroke="black" stroke-width="2" stroke-linecap="round" stroke-linejoin="round"/>
<path d="M8 11.25H3V26.25H8V11.25Z" stroke="black" stroke-width="2" stroke-linecap="round" stroke-linejoin="round"/>
<path d="M5.5 7.5C6.88071 7.5 8 6.38071 8 5C8 3.61929 6.88071 2.5 5.5 2.5C4.11929 2.5 3 3.61929 3 5C3 6.38071 4.11929 7.5 5.5 7.5Z" stroke="black" stroke-width="2" stroke-linecap="round" stroke-linejoin="round"/>
</svg>
