<?xml version="1.0" encoding="UTF-8"?><svg id="Layer_2" xmlns="http://www.w3.org/2000/svg" viewBox="0 0 81.5 43.06"><defs><style>.cls-1{fill:none;stroke:#231f20;stroke-miterlimit:10;stroke-width:3px;}.cls-2{fill:#231f20;}</style></defs><g id="Layer_1-2"><g><g><path class="cls-2" d="M31.01,29.99H12.05l-4.08,9.09h-3.74L19.78,5.06h3.55l15.55,34.02h-3.79l-4.08-9.09Zm-1.31-2.92L21.53,8.8,13.37,27.08H29.69Z"/><path class="cls-2" d="M54.75,14.63c1.6-.87,3.59-1.31,5.95-1.31v3.35l-.83-.05c-2.69,0-4.79,.83-6.32,2.48-1.52,1.65-2.28,3.97-2.28,6.95v13.02h-3.45V13.52h3.3v5.01c.81-1.72,2.02-3.01,3.62-3.89Z"/><path class="cls-2" d="M81.5,37.52c-.65,.58-1.45,1.03-2.41,1.34-.96,.31-1.95,.46-2.99,.46-2.4,0-4.24-.65-5.54-1.94-1.3-1.3-1.94-3.13-1.94-5.49v-15.45h-4.57v-2.92h4.57V7.93h3.45v5.59h7.78v2.92h-7.78v15.26c0,1.52,.38,2.68,1.14,3.47,.76,.79,1.85,1.19,3.28,1.19,.71,0,1.4-.11,2.07-.34,.66-.23,1.24-.55,1.73-.97l1.21,2.48Z"/></g><rect class="cls-1" x="1.5" y="1.5" width="40.06" height="40.06"/></g></g></svg>